<svg width="15" height="16" viewBox="0 0 15 16" fill="none" xmlns="http://www.w3.org/2000/svg">
<path d="M12.1875 2.84375H2.8125C2.03585 2.84375 1.40625 3.47335 1.40625 4.25V12.6875C1.40625 13.4642 2.03585 14.0938 2.8125 14.0938H12.1875C12.9642 14.0938 13.5938 13.4642 13.5938 12.6875V4.25C13.5938 3.47335 12.9642 2.84375 12.1875 2.84375Z" stroke="#8F8F8F" stroke-linejoin="round"/>
<path d="M8.67188 8C9.0602 8 9.375 7.6852 9.375 7.29688C9.375 6.90855 9.0602 6.59375 8.67188 6.59375C8.28355 6.59375 7.96875 6.90855 7.96875 7.29688C7.96875 7.6852 8.28355 8 8.67188 8Z" fill="#8F8F8F"/>
<path d="M11.0156 8C11.404 8 11.7188 7.6852 11.7188 7.29688C11.7188 6.90855 11.404 6.59375 11.0156 6.59375C10.6273 6.59375 10.3125 6.90855 10.3125 7.29688C10.3125 7.6852 10.6273 8 11.0156 8Z" fill="#8F8F8F"/>
<path d="M8.67188 10.3438C9.0602 10.3438 9.375 10.029 9.375 9.64062C9.375 9.2523 9.0602 8.9375 8.67188 8.9375C8.28355 8.9375 7.96875 9.2523 7.96875 9.64062C7.96875 10.029 8.28355 10.3438 8.67188 10.3438Z" fill="#8F8F8F"/>
<path d="M11.0156 10.3438C11.404 10.3438 11.7188 10.029 11.7188 9.64062C11.7188 9.2523 11.404 8.9375 11.0156 8.9375C10.6273 8.9375 10.3125 9.2523 10.3125 9.64062C10.3125 10.029 10.6273 10.3438 11.0156 10.3438Z" fill="#8F8F8F"/>
<path d="M3.98438 10.3438C4.3727 10.3438 4.6875 10.029 4.6875 9.64062C4.6875 9.2523 4.3727 8.9375 3.98438 8.9375C3.59605 8.9375 3.28125 9.2523 3.28125 9.64062C3.28125 10.029 3.59605 10.3438 3.98438 10.3438Z" fill="#8F8F8F"/>
<path d="M6.32812 10.3438C6.71645 10.3438 7.03125 10.029 7.03125 9.64062C7.03125 9.2523 6.71645 8.9375 6.32812 8.9375C5.9398 8.9375 5.625 9.2523 5.625 9.64062C5.625 10.029 5.9398 10.3438 6.32812 10.3438Z" fill="#8F8F8F"/>
<path d="M3.98438 12.6875C4.3727 12.6875 4.6875 12.3727 4.6875 11.9844C4.6875 11.596 4.3727 11.2812 3.98438 11.2812C3.59605 11.2812 3.28125 11.596 3.28125 11.9844C3.28125 12.3727 3.59605 12.6875 3.98438 12.6875Z" fill="#8F8F8F"/>
<path d="M6.32812 12.6875C6.71645 12.6875 7.03125 12.3727 7.03125 11.9844C7.03125 11.596 6.71645 11.2812 6.32812 11.2812C5.9398 11.2812 5.625 11.596 5.625 11.9844C5.625 12.3727 5.9398 12.6875 6.32812 12.6875Z" fill="#8F8F8F"/>
<path d="M8.67188 12.6875C9.0602 12.6875 9.375 12.3727 9.375 11.9844C9.375 11.596 9.0602 11.2812 8.67188 11.2812C8.28355 11.2812 7.96875 11.596 7.96875 11.9844C7.96875 12.3727 8.28355 12.6875 8.67188 12.6875Z" fill="#8F8F8F"/>
<path d="M3.75 1.90625V2.84375M11.25 1.90625V2.84375" stroke="#8F8F8F" stroke-linecap="round" stroke-linejoin="round"/>
<path d="M13.5938 5.1875H1.40625" stroke="#8F8F8F" stroke-linejoin="round"/>
</svg>
