<svg width="158" height="149" viewBox="0 0 158 149" fill="none" xmlns="http://www.w3.org/2000/svg">
<path d="M83.25 148.5C124.257 148.5 157.5 115.257 157.5 74.25C157.5 33.2429 124.257 0 83.25 0C42.2429 0 9 33.2429 9 74.25C9 115.257 42.2429 148.5 83.25 148.5Z" fill="#3173BA"/>
<path d="M98 22.3201C89.86 22.3201 83.25 28.1401 83.25 33.7101C83.25 28.2201 76.65 22.3201 68.5 22.3201C60.35 22.3201 53.75 28.9601 53.75 37.1501C53.75 59.1101 83.25 75.1701 83.25 75.1701C83.25 75.1701 112.75 59.1101 112.75 37.1501C112.75 28.9601 106.14 22.3201 97.99 22.3201H98Z" fill="#FF5F5F"/>
<path d="M112.75 37.1601C112.75 28.9701 106.14 22.3301 97.9902 22.3301C89.8402 22.3301 83.2402 28.1501 83.2402 33.7201V75.1901C83.2402 75.1901 112.74 59.1301 112.74 37.1701L112.75 37.1601Z" fill="#EC3345"/>
<path d="M83.3997 50.1001L77.8697 39.1201C77.8097 38.9601 77.7297 38.8101 77.6297 38.6701C77.4097 38.3101 77.0397 38.0701 76.6197 37.9901C76.4797 37.9501 76.3397 37.9301 76.1897 37.9301H74.2697C75.6497 37.1401 76.5797 35.6601 76.5797 33.9601C76.5797 31.4301 74.5297 29.3901 71.9997 29.3901C69.4697 29.3901 67.4197 31.4401 67.4197 33.9601C67.4197 35.6601 68.3497 37.1401 69.7297 37.9301H67.8097C67.6597 37.9301 67.5197 37.9501 67.3797 37.9901C66.9597 38.0701 66.5897 38.3001 66.3697 38.6701C66.2697 38.8101 66.1897 38.9601 66.1297 39.1201L60.5997 50.1001C60.2197 50.8601 60.5997 51.8301 61.4397 52.2501L61.6897 52.3701C62.5297 52.8001 63.5397 52.5301 63.9197 51.7701L66.0097 47.6101V52.8101H66.5897V65.2401C66.5897 66.4601 67.5897 67.4601 68.8097 67.4601H69.1697C70.3897 67.4601 71.3897 66.4601 71.3897 65.2401V52.8101H72.5597V65.2401C72.5597 66.4601 73.5597 67.4601 74.7797 67.4601H75.1397C76.3597 67.4601 77.3597 66.4601 77.3597 65.2401V52.8101H77.9397V47.6101L80.0297 51.7701C80.4097 52.5301 81.4097 52.8001 82.2597 52.3701L82.5097 52.2501C83.3497 51.8201 83.7297 50.8601 83.3497 50.1001H83.3997Z" fill="#4C1D18"/>
<path d="M105.69 51.4502L99.1498 44.8602C98.9198 44.5402 98.6398 44.2502 98.3098 44.0202L98.2598 43.9602C98.1098 43.8102 97.9198 43.7102 97.7198 43.6602C97.5098 43.5602 97.2898 43.4702 97.0598 43.4202C98.5598 42.7502 99.5998 41.2502 99.5998 39.5102C99.5998 37.1502 97.6898 35.2302 95.3198 35.2302C92.9498 35.2302 91.0398 37.1402 91.0398 39.5102C91.0398 41.2502 92.0798 42.7502 93.5798 43.4202C92.4598 43.7002 91.4598 44.5702 91.0598 45.6502L85.2998 51.4602C84.7998 51.9602 84.8498 52.8202 85.4098 53.3802L85.5798 53.5402C86.1398 54.0902 86.9998 54.1402 87.4998 53.6402L89.9098 51.2002L88.9898 55.8602C88.6998 57.3502 89.6498 58.5702 91.1298 58.6602V65.7502C91.1298 66.7002 91.9098 67.4802 92.8598 67.4802H93.1398C94.0898 67.4802 94.8698 66.7002 94.8698 65.7502V58.6802H95.7798V65.7502C95.7798 66.7002 96.5598 67.4802 97.5098 67.4802H97.7898C98.7398 67.4802 99.5198 66.7002 99.5198 65.7502V58.6602C101 58.5602 101.95 57.3502 101.66 55.8602L100.65 50.7602L103.5 53.6302C104 54.1302 104.86 54.0902 105.42 53.5302L105.59 53.3702C106.15 52.8202 106.2 51.9502 105.7 51.4502H105.69Z" fill="#4C1D18"/>
<path d="M93.0501 57.6101L87.6901 52.2001C87.5801 52.0901 87.4401 52.0301 87.3001 51.9901C87.0701 51.8801 86.8201 51.8201 86.5501 51.8201H85.3701C86.5501 51.3901 87.4001 50.2601 87.4001 48.9301C87.4001 47.2301 86.0201 45.8401 84.3101 45.8401C82.6001 45.8401 81.2201 47.2201 81.2201 48.9301C81.2201 50.2601 82.0701 51.3901 83.2501 51.8201H82.0701C81.4301 51.8201 80.8801 52.1601 80.5601 52.6601L75.6501 57.6101C75.2901 57.9701 75.3301 58.5901 75.7301 58.9901L75.8501 59.1101C76.2501 59.5101 76.8801 59.5401 77.2301 59.1801L80.2701 56.1101V59.8901H81.0901V66.2701C81.0901 66.9301 81.6301 67.4701 82.2901 67.4701H82.4901C83.1501 67.4701 83.6901 66.9301 83.6901 66.2701V59.8901H84.9201V66.2701C84.9201 66.9301 85.4601 67.4701 86.1201 67.4701H86.3201C86.9801 67.4701 87.5201 66.9301 87.5201 66.2701V59.8901H88.3501V56.0301L91.4701 59.1801C91.8301 59.5401 92.4501 59.5101 92.8501 59.1101L92.9701 58.9901C93.3701 58.5901 93.4101 57.9701 93.0501 57.6101Z" fill="white"/>
<mask id="mask0_1263_898" style="mask-type:luminance" maskUnits="userSpaceOnUse" x="9" y="0" width="149" height="149">
<path d="M83.25 148.5C124.257 148.5 157.5 115.257 157.5 74.25C157.5 33.2429 124.257 0 83.25 0C42.2429 0 9 33.2429 9 74.25C9 115.257 42.2429 148.5 83.25 148.5Z" fill="white"/>
</mask>
<g mask="url(#mask0_1263_898)">
<path d="M63.96 82.4599C63.96 82.4599 64.54 89.7999 70.84 88.0499C70.03 85.2499 68.04 81.6399 68.04 81.6399L63.96 82.4599Z" fill="#DD8950"/>
<path d="M66.6396 80.5998L69.8997 87.1298C69.8997 87.1298 71.9997 90.3898 76.0797 88.4098C77.0097 88.5298 77.3596 86.5398 77.3596 86.5398L70.8297 80.7098L66.6396 80.5898V80.5998Z" fill="#F2AF72"/>
<path d="M79.8098 114.99L63.7198 107.3L56.3798 90.6899L58.6498 85.7899L70.3698 82.2899C70.3698 82.2899 73.5198 85.2599 75.6198 87.1899C75.4498 96.8099 82.2598 96.6299 82.2598 96.6299L82.6098 84.5699C82.6098 84.5699 75.6198 75.6499 72.9898 73.7299C71.9398 70.9299 69.3198 70.5799 69.3198 70.5799C69.3198 70.5799 65.9998 71.1099 63.8998 71.6299C63.1998 69.8799 61.2798 69.8799 61.2798 69.8799L35.5798 79.4999L22.4698 98.0299L5.58984 114.55L22.3698 131.33C28.2998 125.58 35.1798 118.83 36.9798 116.74C38.8998 117.26 46.2498 118.84 56.0398 117.62C65.8298 116.4 79.2898 122.87 82.0898 123.91C85.7598 117.79 79.8198 114.99 79.8198 114.99H79.8098Z" fill="#FFBE7D"/>
<path d="M79.8099 114.99L63.7199 107.3L56.3799 90.6899L58.6499 85.7899L70.3699 82.2899C70.3699 82.2899 73.5199 85.2599 75.6199 87.1899C75.5299 92.0899 77.2499 94.4399 78.9699 95.5799C79.3699 93.7599 80.1399 89.4899 79.4699 86.6699C77.8999 85.0899 72.1299 78.7999 72.1299 78.7999C72.1299 78.7999 70.3799 77.9299 68.9799 78.4499C67.5799 78.9699 37.8599 91.3899 37.8599 91.3899L11.6699 120.62L22.3799 131.33C28.3099 125.58 35.1899 118.83 36.9899 116.74C38.9099 117.26 46.2599 118.84 56.0499 117.62C65.8399 116.4 79.2999 122.87 82.0999 123.91C85.7699 117.79 79.8299 114.99 79.8299 114.99H79.8099Z" fill="#F2AF72"/>
<path d="M72.5194 74.2498C72.9894 74.2198 73.4595 74.3498 73.8895 74.4898C73.5495 74.1798 73.2494 73.9098 72.9894 73.7298C72.9894 73.7298 72.9895 73.7098 72.9795 73.7098C70.4695 73.3898 67.8295 74.3498 67.8295 74.3498L46.9395 81.3398L47.1095 81.9498C47.1095 81.9498 61.3694 77.0398 68.3794 74.9498C70.3694 74.3598 70.5594 74.3898 72.5194 74.2498Z" fill="#DD8950"/>
<path d="M64.4295 71.4999C64.2495 71.5399 64.0695 71.5899 63.8995 71.6299C63.8395 71.4699 63.7595 71.3299 63.6795 71.1899L46.7695 77.2199L47.0295 78.0999L64.4295 71.5399V71.4999Z" fill="#DD8950"/>
<path d="M80.6297 90.16L79.9297 94.82C79.9297 94.82 80.1997 95.68 82.2797 95.92L82.4497 89.98L80.6297 90.15V90.16Z" fill="#FFD5AB"/>
<path d="M81.5598 119.77L76.1998 118.95L75.7598 121.34C78.0298 122.2 79.9098 123.01 81.1198 123.51C81.8498 122.07 81.5698 119.76 81.5698 119.76L81.5598 119.77Z" fill="#FFD5AB"/>
<path d="M102.54 82.4599C102.54 82.4599 101.96 89.7999 95.6602 88.0499C96.4802 85.2499 98.4602 81.6399 98.4602 81.6399L102.54 82.4599Z" fill="#DD8950"/>
<path d="M99.8599 80.5998L96.5999 87.1298C96.5999 87.1298 94.4999 90.3898 90.4199 88.4098C89.4899 88.5298 89.1299 86.5398 89.1299 86.5398L95.6599 80.7098L99.8599 80.5898V80.5998Z" fill="#F2AF72"/>
<path d="M86.6895 114.99L102.779 107.3L110.119 90.6899L107.849 85.7899L96.1295 82.2899C96.1295 82.2899 92.9795 85.2599 90.8895 87.1899C91.0595 96.8099 84.2495 96.6299 84.2495 96.6299L83.8995 84.5699C83.8995 84.5699 90.8995 75.6499 93.5195 73.7299C94.5695 70.9299 97.1895 70.5799 97.1895 70.5799C97.1895 70.5799 100.509 71.1099 102.609 71.6299C103.309 69.8799 105.229 69.8799 105.229 69.8799L130.929 79.4999L144.049 98.0299L160.929 114.55L144.149 131.33C138.219 125.58 131.339 118.83 129.539 116.74C127.619 117.26 120.269 118.84 110.479 117.62C100.689 116.4 87.2295 122.87 84.4295 123.91C80.7595 117.79 86.6995 114.99 86.6995 114.99H86.6895Z" fill="#FFBE7D"/>
<path d="M86.6899 114.99L102.78 107.3L110.12 90.6899L107.85 85.7899L96.1299 82.2899C96.1299 82.2899 92.9799 85.2599 90.8899 87.1899C90.9799 92.0899 89.2499 94.4399 87.5399 95.5799C87.1499 93.7599 86.3699 89.4899 87.0399 86.6699C88.6099 85.0899 94.3799 78.7999 94.3799 78.7999C94.3799 78.7999 96.1299 77.9299 97.5299 78.4499C98.9299 78.9699 128.65 91.3899 128.65 91.3899L154.84 120.62L144.13 131.33C138.2 125.58 131.32 118.83 129.52 116.74C127.6 117.26 120.25 118.84 110.46 117.62C100.67 116.4 87.2099 122.87 84.4099 123.91C80.7399 117.79 86.6799 114.99 86.6799 114.99H86.6899Z" fill="#F2AF72"/>
<path d="M93.9704 74.2498C93.5104 74.2198 93.0404 74.3498 92.6104 74.4898C92.9404 74.1798 93.2504 73.9098 93.5104 73.7298V73.7098C96.0204 73.3898 98.6604 74.3498 98.6604 74.3498L119.55 81.3398L119.38 81.9498C119.38 81.9498 105.12 77.0398 98.1104 74.9498C96.1204 74.3598 95.9304 74.3898 93.9704 74.2498Z" fill="#DD8950"/>
<path d="M102.07 71.4999C102.25 71.5399 102.43 71.5899 102.6 71.6299C102.66 71.4699 102.74 71.3299 102.82 71.1899L119.73 77.2199L119.47 78.0999L102.07 71.5399V71.4999Z" fill="#DD8950"/>
<path d="M85.8698 90.16L86.5698 94.82C86.5698 94.82 86.3098 95.68 84.2198 95.92L84.0498 89.98L85.8698 90.15V90.16Z" fill="#FFD5AB"/>
<path d="M84.9397 119.77L90.2997 118.95L90.7397 121.34C88.4697 122.2 86.5897 123.01 85.3797 123.51C84.6497 122.07 84.9297 119.76 84.9297 119.76L84.9397 119.77Z" fill="#FFD5AB"/>
</g>
<path d="M117.69 21.72C115.97 21.72 114.58 22.95 114.58 24.12C114.58 22.96 113.19 21.72 111.47 21.72C109.75 21.72 108.36 23.12 108.36 24.85C108.36 29.49 114.59 32.88 114.59 32.88C114.59 32.88 120.82 29.49 120.82 24.85C120.82 23.12 119.42 21.72 117.7 21.72H117.69Z" fill="white"/>
<path d="M66.7398 7.91992C64.9598 7.91992 63.5098 9.18992 63.5098 10.4199C63.5098 9.21992 62.0598 7.91992 60.2798 7.91992C58.4998 7.91992 57.0498 9.36992 57.0498 11.1699C57.0498 15.9799 63.5098 19.4999 63.5098 19.4999C63.5098 19.4999 69.9698 15.9799 69.9698 11.1699C69.9698 9.36992 68.5198 7.91992 66.7398 7.91992Z" fill="white"/>
<path d="M47.6804 25.5601C46.5304 25.5601 45.6004 26.3801 45.6004 27.1601C45.6004 26.3901 44.6704 25.5601 43.5204 25.5601C42.3704 25.5601 41.4404 26.4901 41.4404 27.6501C41.4404 30.7401 45.6004 33.0101 45.6004 33.0101C45.6004 33.0101 49.7504 30.7501 49.7504 27.6501C49.7504 26.4901 48.8204 25.5601 47.6704 25.5601H47.6804Z" fill="white"/>
<path d="M124.93 32.22C123.7 32.22 122.7 33.1 122.7 33.94C122.7 33.11 121.7 32.22 120.47 32.22C119.24 32.22 118.24 33.22 118.24 34.46C118.24 37.78 122.7 40.2 122.7 40.2C122.7 40.2 127.16 37.77 127.16 34.46C127.16 33.22 126.16 32.22 124.93 32.22Z" fill="white"/>
<path d="M150.9 21.19C150.9 24.17 148.48 26.59 145.5 26.59C142.52 26.59 140.1 24.17 140.1 21.19C140.1 18.21 142.52 15.79 145.5 15.79C148.48 15.79 150.9 18.21 150.9 21.19Z" fill="#3173BA"/>
<path d="M147.9 31.6901C147.9 33.6801 149.51 35.2901 151.5 35.2901C153.49 35.2901 155.1 33.6801 155.1 31.6901C155.1 29.7001 153.49 28.0901 151.5 28.0901C149.51 28.0901 147.9 29.7001 147.9 31.6901Z" fill="#3173BA"/>
<path d="M37.8002 16.2399C37.8002 18.4799 35.9902 20.2899 33.7502 20.2899C31.5102 20.2899 29.7002 18.4799 29.7002 16.2399C29.7002 13.9999 31.5102 12.1899 33.7502 12.1899C35.9902 12.1899 37.8002 13.9999 37.8002 16.2399Z" fill="#3173BA"/>
<path d="M7.2002 91.3899C7.2002 93.0499 5.8602 94.3899 4.2002 94.3899C2.5402 94.3899 1.2002 93.0499 1.2002 91.3899C1.2002 89.7299 2.5402 88.3899 4.2002 88.3899C5.8602 88.3899 7.2002 89.7299 7.2002 91.3899Z" fill="#3173BA"/>
<path d="M4.5 106.69C6.98528 106.69 9 104.675 9 102.19C9 99.7047 6.98528 97.6899 4.5 97.6899C2.01472 97.6899 0 99.7047 0 102.19C0 104.675 2.01472 106.69 4.5 106.69Z" fill="#3173BA"/>
</svg>
