<svg width="24" height="24" viewBox="0 0 24 24" fill="none" xmlns="http://www.w3.org/2000/svg">
<path d="M18 10C18 9.73479 17.8947 9.48043 17.7071 9.2929C17.5196 9.10536 17.2652 9 17 9H5.41002L7.71002 6.71C7.89832 6.5217 8.00411 6.2663 8.00411 6C8.00411 5.7337 7.89832 5.47831 7.71002 5.29C7.52171 5.1017 7.26632 4.99591 7.00002 4.99591C6.73372 4.99591 6.47832 5.1017 6.29002 5.29L2.29002 9.29C2.15126 9.43063 2.05726 9.6092 2.01989 9.80319C1.98252 9.99718 2.00344 10.1979 2.08002 10.38C2.15504 10.5626 2.28244 10.7189 2.44616 10.8293C2.60988 10.9396 2.80259 10.999 3.00002 11H17C17.2652 11 17.5196 10.8946 17.7071 10.7071C17.8947 10.5196 18 10.2652 18 10ZM21.92 13.62C21.845 13.4374 21.7176 13.2811 21.5539 13.1707C21.3902 13.0604 21.1974 13.001 21 13H7.00002C6.7348 13 6.48045 13.1054 6.29291 13.2929C6.10537 13.4804 6.00002 13.7348 6.00002 14C6.00002 14.2652 6.10537 14.5196 6.29291 14.7071C6.48045 14.8946 6.7348 15 7.00002 15H18.59L16.29 17.29C16.1963 17.383 16.1219 17.4936 16.0711 17.6154C16.0204 17.7373 15.9942 17.868 15.9942 18C15.9942 18.132 16.0204 18.2627 16.0711 18.3846C16.1219 18.5064 16.1963 18.617 16.29 18.71C16.383 18.8037 16.4936 18.8781 16.6154 18.9289C16.7373 18.9797 16.868 19.0058 17 19.0058C17.132 19.0058 17.2627 18.9797 17.3846 18.9289C17.5065 18.8781 17.6171 18.8037 17.71 18.71L21.71 14.71C21.8488 14.5694 21.9428 14.3908 21.9801 14.1968C22.0175 14.0028 21.9966 13.8021 21.92 13.62Z" fill="#00A8D0"/>
</svg>
