<svg width="16" height="14" viewBox="0 0 16 14" fill="none" xmlns="http://www.w3.org/2000/svg">
<path d="M11.3906 0.251709C9.93867 0.251709 8.66742 0.876084 7.875 1.93147C7.08258 0.876084 5.81133 0.251709 4.35938 0.251709C3.2036 0.253012 2.09553 0.71272 1.27827 1.52998C0.461011 2.34724 0.00130271 3.45531 0 4.61108C0 9.53296 7.29773 13.5169 7.60852 13.6814C7.69043 13.7255 7.78199 13.7485 7.875 13.7485C7.96801 13.7485 8.05957 13.7255 8.14148 13.6814C8.45226 13.5169 15.75 9.53296 15.75 4.61108C15.7487 3.45531 15.289 2.34724 14.4717 1.52998C13.6545 0.71272 12.5464 0.253012 11.3906 0.251709ZM7.875 12.5423C6.59109 11.7942 1.125 8.38616 1.125 4.61108C1.12612 3.75362 1.46724 2.93159 2.07356 2.32527C2.67988 1.71895 3.50191 1.37783 4.35938 1.37671C5.72695 1.37671 6.87516 2.10515 7.35469 3.27515C7.39707 3.37831 7.46916 3.46656 7.5618 3.52866C7.65445 3.59076 7.76347 3.62392 7.875 3.62392C7.98653 3.62392 8.09555 3.59076 8.1882 3.52866C8.28084 3.46656 8.35293 3.37831 8.39531 3.27515C8.87484 2.10304 10.023 1.37671 11.3906 1.37671C12.2481 1.37783 13.0701 1.71895 13.6764 2.32527C14.2828 2.93159 14.6239 3.75362 14.625 4.61108C14.625 8.38054 9.1575 11.7935 7.875 12.5423Z" fill="#FFB423"/>
</svg>
