<svg width="14" height="14" viewBox="0 0 14 14" fill="none" xmlns="http://www.w3.org/2000/svg">
<path d="M7.72837 0.416504L7.55231 0.574004L1.13588 7.06132L0.75 7.44832L1.13644 7.85332L6.48019 13.1971L6.88519 13.5835L7.27331 13.1971L13.7589 6.78063L13.9159 6.604V0.416504H7.72837ZM8.20312 1.5415H12.7909V6.12925L6.88462 12.0006L2.33175 7.44775L8.20312 1.5415ZM11.1034 2.6665C10.9542 2.6665 10.8111 2.72577 10.7056 2.83126C10.6001 2.93675 10.5409 3.07982 10.5409 3.229C10.5409 3.37819 10.6001 3.52126 10.7056 3.62675C10.8111 3.73224 10.9542 3.7915 11.1034 3.7915C11.2526 3.7915 11.3956 3.73224 11.5011 3.62675C11.6066 3.52126 11.6659 3.37819 11.6659 3.229C11.6659 3.07982 11.6066 2.93675 11.5011 2.83126C11.3956 2.72577 11.2526 2.6665 11.1034 2.6665Z" fill="#FFB423"/>
</svg>
